ffmpeg version N-55863-g9f38fac053-static https://johnvansickle.com/ffmpeg/  Copyright (c) 2000-2021 the FFmpeg developers
  built with gcc 8 (Debian 8.3.0-6)
  configuration: --enable-gpl --enable-version3 --enable-static --disable-debug --disable-ffplay --disable-indev=sndio --disable-outdev=sndio --cc=gcc --enable-fontconfig --enable-frei0r --enable-gnutls --enable-gmp --enable-libgme --enable-gray --enable-libaom --enable-libfribidi --enable-libass --enable-libvmaf --enable-libfreetype --enable-libmp3lame --enable-libopencore-amrnb --enable-libopencore-amrwb --enable-libopenjpeg --enable-librubberband --enable-libsoxr --enable-libspeex --enable-libsrt --enable-libvorbis --enable-libopus --enable-libtheora --enable-libvidstab --enable-libvo-amrwbenc --enable-libvpx --enable-libwebp --enable-libx264 --enable-libx265 --enable-libxml2 --enable-libdav1d --enable-libxvid --enable-libzvbi --enable-libzimg
  libavutil      56. 64.100 / 56. 64.100
  libavcodec     58.119.100 / 58.119.100
  libavformat    58. 65.101 / 58. 65.101
  libavdevice    58. 11.103 / 58. 11.103
  libavfilter     7.100.100 /  7.100.100
  libswscale      5.  8.100 /  5.  8.100
  libswresample   3.  8.100 /  3.  8.100
  libpostproc    55.  8.100 / 55.  8.100
Input #0, mov,mp4,m4a,3gp,3g2,mj2, from '/home/yiaapc5/public_html/f_data/data_userfiles/user_uploads/1525927209/v/1614656928.mp4':
  Metadata:
    major_brand     : isom
    minor_version   : 512
    compatible_brands: isomiso2avc1mp41
    encoder         : Lavf58.54.100
  Duration: 00:02:28.54, start: 0.000000, bitrate: 2905 kb/s
    Stream #0:0(und): Video: h264 (Main) (avc1 / 0x31637661), yuv420p(tv), 726x408 [SAR 1:1 DAR 121:68], 2819 kb/s, 22.95 fps, 100 tbr, 90k tbn, 60 tbc (default)
    Metadata:
      handler_name    : VideoHandler
      vendor_id       : [0][0][0][0]
    Stream #0:1(und): Audio: aac (LC) (mp4a / 0x6134706D), 44100 Hz, stereo, fltp, 81 kb/s (default)
    Metadata:
      handler_name    : SoundHandler
      vendor_id       : [0][0][0][0]
Codec AVOption rc_eq (Set rate control equation. When computing the expression, besides the standard functions defined in the section 'Expression Evaluation', the following functions are available: bits2qp(bits), qp2bits(qp). Also the following constants are available: iTex pTex tex mv fCode iCount mcVar var isI isP isB avgQP qComp avgIITex avgPITex avgPPTex avgBPTex avgTex.) specified for output file #0 (/home/yiaapc5/public_html/f_data/data_userfiles/user_media/1525927209/v/782e629d7b9d0e9b573c43c227ec0764.mob.nomob.mp4) has not been used for any stream. The most likely reason is either wrong type (e.g. a video option with no video streams) or that it is a private option of some encoder which was not actually used for any stream.
Stream mapping:
  Stream #0:0 -> #0:0 (h264 (native) -> h264 (libx264))
  Stream #0:1 -> #0:1 (aac (native) -> aac (native))
Press [q] to stop, [?] for help
[libx264 @ 0x59ccf40] Application has requested 32 threads. Using a thread count greater than 16 is not recommended.
[libx264 @ 0x59ccf40] using SAR=121/120
[libx264 @ 0x59ccf40] frame MB size (30x17) > level limit (396)
[libx264 @ 0x59ccf40] VBV bitrate (10000) > level limit (768)
[libx264 @ 0x59ccf40] VBV buffer (10000) > level limit (2000)
[libx264 @ 0x59ccf40] MB rate (15300) > level limit (11880)
[libx264 @ 0x59ccf40] using cpu capabilities: MMX2 SSE2Fast SSSE3 SSE4.2 AVX
[libx264 @ 0x59ccf40] profile Constrained Baseline, level 1.3, 4:2:0, 8-bit
[libx264 @ 0x59ccf40] 264 - core 161 r3040 35417dc - H.264/MPEG-4 AVC codec - Copyleft 2003-2021 - http://www.videolan.org/x264.html - options: cabac=0 ref=1 deblock=1:0:0 analyse=0x1:0 me=hex subme=1 psy=1 psy_rd=1.00:0.00 mixed_ref=0 me_range=16 chroma_me=1 trellis=0 8x8dct=0 cqm=0 deadzone=21,11 fast_pskip=1 chroma_qp_offset=0 threads=32 lookahead_threads=2 sliced_threads=0 nr=0 decimate=1 interlaced=0 bluray_compat=0 constrained_intra=0 bframes=0 weightp=0 keyint=300 keyint_min=25 scenecut=40 intra_refresh=0 rc_lookahead=30 rc=abr mbtree=1 bitrate=1000 ratetol=1.0 qcomp=0.60 qpmin=10 qpmax=51 qpstep=4 vbv_maxrate=10000 vbv_bufsize=10000 nal_hrd=none filler=0 ip_ratio=1.41 aq=1:1.00
Output #0, mp4, to '/home/yiaapc5/public_html/f_data/data_userfiles/user_media/1525927209/v/782e629d7b9d0e9b573c43c227ec0764.mob.nomob.mp4':
  Metadata:
    major_brand     : isom
    minor_version   : 512
    compatible_brands: isomiso2avc1mp41
    encoder         : Lavf58.65.101
    Stream #0:0(und): Video: h264 (avc1 / 0x31637661), yuv420p(tv, progressive), 480x272 [SAR 121:120 DAR 121:68], q=2-31, 1000 kb/s, 30 fps, 15360 tbn (default)
    Metadata:
      handler_name    : VideoHandler
      vendor_id       : [0][0][0][0]
      encoder         : Lavc58.119.100 libx264
    Side data:
      cpb: bitrate max/min/avg: 10000000/0/1000000 buffer size: 10000000 vbv_delay: N/A
    Stream #0:1(und): Audio: aac (LC) (mp4a / 0x6134706D), 44100 Hz, stereo, fltp, 81 kb/s (default)
    Metadata:
      handler_name    : SoundHandler
      vendor_id       : [0][0][0][0]
      encoder         : Lavc58.119.100 aac
frame=    2 fps=0.0 q=0.0 size=       0kB time=00:00:01.50 bitrate=   0.3kbits/s dup=1 drop=0 speed=45.2x    frame=  384 fps=0.0 q=26.0 size=    1536kB time=00:00:13.32 bitrate= 944.1kbits/s dup=95 drop=0 speed=  25x    frame=  752 fps=727 q=27.0 size=    3328kB time=00:00:25.56 bitrate=1066.4kbits/s dup=178 drop=0 speed=24.7x    frame= 1134 fps=739 q=28.0 size=    4864kB time=00:00:38.33 bitrate=1039.4kbits/s dup=260 drop=0 speed=  25x    frame= 1473 fps=724 q=27.0 size=    6400kB time=00:00:49.66 bitrate=1055.6kbits/s dup=333 drop=0 speed=24.4x    frame= 1831 fps=722 q=27.0 size=    7936kB time=00:01:01.60 bitrate=1055.3kbits/s dup=416 drop=0 speed=24.3x    frame= 2172 fps=715 q=27.0 size=    9216kB time=00:01:12.95 bitrate=1034.8kbits/s dup=492 drop=0 speed=  24x    frame= 2478 fps=701 q=27.0 size=   10496kB time=00:01:23.70 bitrate=1027.2kbits/s dup=577 drop=0 speed=23.7x    frame= 2769 fps=686 q=28.0 size=   12032kB time=00:01:32.83 bitrate=1061.8kbits/s dup=659 drop=0 speed=  23x    frame= 3105 fps=684 q=27.0 size=   13312kB time=00:01:44.02 bitrate=1048.3kbits/s dup=737 drop=0 speed=22.9x    frame= 3486 fps=692 q=26.0 size=   14848kB time=00:01:56.72 bitrate=1042.1kbits/s dup=822 drop=0 speed=23.2x    frame= 3829 fps=691 q=27.0 size=   16640kB time=00:02:08.12 bitrate=1063.9kbits/s dup=887 drop=0 speed=23.1x    frame= 4144 fps=686 q=25.0 size=   17408kB time=00:02:19.06 bitrate=1025.5kbits/s dup=959 drop=0 speed=  23x    More than 1000 frames duplicated
frame= 4455 fps=680 q=-1.0 Lsize=   19889kB time=00:02:28.46 bitrate=1097.4kbits/s dup=1047 drop=0 speed=22.7x    
video:18300kB audio:1464kB subtitle:0kB other streams:0kB global headers:0kB muxing overhead: 0.629232%
[libx264 @ 0x59ccf40] frame I:102   Avg QP:20.04  size: 15936
[libx264 @ 0x59ccf40] frame P:4353  Avg QP:22.49  size:  3931
[libx264 @ 0x59ccf40] mb I  I16..4: 10.0%  0.0% 90.0%
[libx264 @ 0x59ccf40] mb P  I16..4:  9.5%  0.0%  0.0%  P16..4: 50.4%  0.0%  0.0%  0.0%  0.0%    skip:40.1%
[libx264 @ 0x59ccf40] final ratefactor: 20.46
[libx264 @ 0x59ccf40] coded y,uvDC,uvAC intra: 66.9% 71.4% 34.9% inter: 27.9% 23.7% 3.3%
[libx264 @ 0x59ccf40] i16 v,h,dc,p: 29% 28% 18% 25%
[libx264 @ 0x59ccf40] i4 v,h,dc,ddl,ddr,vr,hd,vl,hu: 24% 22% 10%  9%  7%  7%  7%  7%  8%
[libx264 @ 0x59ccf40] i8c dc,h,v,p: 35% 24% 26% 15%
[libx264 @ 0x59ccf40] kb/s:1009.49
[aac @ 0x5a33b40] Qavg: 763.938
